<?xml version="1.0" encoding="UTF-8" standalone="no"?>
<!-- Created with Inkscape (http://www.inkscape.org/) -->

<svg
   xmlns:dc="http://purl.org/dc/elements/1.1/"
   xmlns:cc="http://creativecommons.org/ns#"
   xmlns:rdf="http://www.w3.org/1999/02/22-rdf-syntax-ns#"
   xmlns:svg="http://www.w3.org/2000/svg"
   xmlns="http://www.w3.org/2000/svg"
   xmlns:sodipodi="http://sodipodi.sourceforge.net/DTD/sodipodi-0.dtd"
   xmlns:inkscape="http://www.inkscape.org/namespaces/inkscape"
   width="119.99991mm"
   height="119.99991mm"
   viewBox="0 0 119.99991 119.99991"
   version="1.1"
   id="svg8"
   inkscape:version="0.92.3 (unknown)"
   sodipodi:docname="Facebook.svg">
  <defs
     id="defs2" />
  <sodipodi:namedview
     id="base"
     pagecolor="#ffffff"
     bordercolor="#666666"
     borderopacity="1.0"
     inkscape:pageopacity="0.0"
     inkscape:pageshadow="2"
     inkscape:zoom="0.29547466"
     inkscape:cx="805.81422"
     inkscape:cy="337.99248"
     inkscape:document-units="mm"
     inkscape:current-layer="layer1"
     showgrid="false"
     inkscape:snap-global="false"
     inkscape:window-width="1024"
     inkscape:window-height="573"
     inkscape:window-x="0"
     inkscape:window-y="0"
     inkscape:window-maximized="1"
     fit-margin-top="0"
     fit-margin-left="0"
     fit-margin-right="0"
     fit-margin-bottom="0" />
  <metadata
     id="metadata5">
    <rdf:RDF>
      <cc:Work
         rdf:about="">
        <dc:format>image/svg+xml</dc:format>
        <dc:type
           rdf:resource="http://purl.org/dc/dcmitype/StillImage" />
        <dc:title></dc:title>
      </cc:Work>
    </rdf:RDF>
  </metadata>
  <g
     inkscape:label="Capa 1"
     inkscape:groupmode="layer"
     id="layer1"
     transform="translate(-54.197854,-106.48625)">
    <g
       id="g4755"
       transform="matrix(0.94030316,0,0,0.94030316,6.8172479,9.9387)">
      <path
         inkscape:connector-curvature="0"
         id="path4747"
         d="m 114.19781,106.48625 a 59.999998,59.999998 0 0 0 -59.999956,59.99996 59.999998,59.999998 0 0 0 59.999956,59.99995 59.999998,59.999998 0 0 0 59.99995,-59.99995 59.999998,59.999998 0 0 0 -1.89962,-14.77223 c -0.007,0.009 -0.0132,0.0173 -0.0202,0.0258 L 123.4267,107.27587 a 59.999998,59.999998 0 0 0 -9.22889,-0.78962 z"
         style="opacity:1;fill:#0044aa;fill-opacity:1;stroke:none;stroke-width:6.41677904;stroke-linecap:square;stroke-linejoin:miter;stroke-miterlimit:4;stroke-dasharray:none;stroke-dashoffset:70.37480164;stroke-opacity:0.92941176;paint-order:stroke fill markers" />
      <path
         style="opacity:1;fill:#000000;fill-opacity:1;stroke:none;stroke-width:1.34190011;stroke-linecap:square;stroke-linejoin:miter;stroke-miterlimit:4;stroke-dasharray:1.3419, 8.05140004;stroke-dashoffset:0;stroke-opacity:1;paint-order:stroke fill markers"
         d="m 121.79174,138.73123 c -5.7986,-0.0236 -12.84978,0.28011 -14.78914,1.79058 -3.79758,2.95774 -2.94664,8.65514 -2.94664,8.65514 h 0.0132 v 10.35608 l -10.89534,-0.0536 3.399662,10.07008 7.495678,0.0223 v 29.08715 h 12.5517 v -29.0492 l 8.19408,0.0242 2.87586,-9.98498 -11.06994,-0.0544 v -10.29979 l 13.40378,0.1263 0.0296,-10.45554 c 0,0 -3.75215,-0.21596 -8.26218,-0.2343 z"
         id="path4791"
         inkscape:connector-curvature="0" />
      <path
         inkscape:connector-curvature="0"
         id="rect982"
         d="m 123.64118,138.73116 c -5.74883,-0.0223 -12.73948,0.26532 -14.66219,1.69599 -3.76498,2.80149 -2.92134,8.19791 -2.92134,8.19791 h 0.0131 v 9.80899 l -10.801807,-0.0508 3.370479,9.5381 7.431328,0.0211 V 195.493 h 12.44397 v -27.5146 l 8.12373,0.0229 2.85117,-9.4575 -10.9749,-0.0515 v -9.75567 l 13.28871,0.11963 0.0294,-9.9032 c 0,0 -3.71994,-0.20455 -8.19126,-0.22192 z"
         style="opacity:1;fill:#ffffff;fill-opacity:1;stroke:none;stroke-width:1.3003571;stroke-linecap:square;stroke-linejoin:miter;stroke-miterlimit:4;stroke-dasharray:1.30035704, 7.80214224;stroke-dashoffset:0;stroke-opacity:1;paint-order:stroke fill markers" />
      <path
         transform="matrix(0.75190102,0.65927601,-0.63853543,0.76959243,0,0)"
         sodipodi:nodetypes="csc"
         inkscape:connector-curvature="0"
         id="path4749"
         d="m 229.87231,0.52060916 c 0,0 -4.11613,28.40959484 -33.46018,27.59648084 -25.76011,-0.713805 -32.86366,-28.82878495 -32.86366,-28.82878495"
         style="opacity:1;fill:#003585;fill-opacity:1;stroke:none;stroke-width:9.30920029;stroke-linecap:square;stroke-linejoin:miter;stroke-miterlimit:4;stroke-dasharray:none;stroke-dashoffset:70.37480164;stroke-opacity:0.92941176;paint-order:stroke fill markers" />
    </g>
  </g>
</svg>
